<svg xmlns="http://www.w3.org/2000/svg" xmlns:xlink="http://www.w3.org/1999/xlink" viewBox="0 0 206.39 178.31"><defs><style>.cls-1{fill:url(#linear-gradient);}.cls-2{fill:url(#linear-gradient-2);}.cls-3{fill:url(#linear-gradient-3);}.cls-4{fill:url(#linear-gradient-4);}</style><linearGradient id="linear-gradient" x1="41.85" y1="89.21" x2="206.39" y2="89.21" gradientUnits="userSpaceOnUse"><stop offset="0" stop-color="#0f948d"/><stop offset="1" stop-color="#0eaea7"/></linearGradient><linearGradient id="linear-gradient-2" y1="57.56" x2="203.89" y2="57.56" gradientUnits="userSpaceOnUse"><stop offset="0" stop-color="#0eaea7"/><stop offset="1" stop-color="#0f948d"/></linearGradient><linearGradient id="linear-gradient-3" x1="203.89" y1="57.56" x2="0" y2="57.56" gradientUnits="userSpaceOnUse"><stop offset="0" stop-color="#0f948d" stop-opacity="0"/><stop offset="0.47" stop-color="#31535d" stop-opacity="0.3"/><stop offset="0.79" stop-color="#1e8586" stop-opacity="0.14"/><stop offset="1" stop-color="#0eaea7" stop-opacity="0"/></linearGradient><linearGradient id="linear-gradient-4" x1="41.85" y1="89.21" x2="206.39" y2="89.21" gradientUnits="userSpaceOnUse"><stop offset="0" stop-color="#0f948d" stop-opacity="0"/><stop offset="0.09" stop-color="#178481" stop-opacity="0.14"/><stop offset="0.33" stop-color="#2a6167" stop-opacity="0.48"/><stop offset="0.47" stop-color="#31535d" stop-opacity="0.6"/><stop offset="0.65" stop-color="#276c71" stop-opacity="0.43"/><stop offset="1" stop-color="#0eada6" stop-opacity="0"/><stop offset="1" stop-color="#0eaea7" stop-opacity="0"/></linearGradient></defs><g id="Layer_2" data-name="Layer 2"><g id="Layer_1-2" data-name="Layer 1"><path class="cls-1" d="M206.39.26,102.92,178.31,41.85,73.38c.54.82,18.06,27,40.31,36.59,0,0,29.09,13.57,46.88-3.37,0,0,4.81-4.87,7.47-15l10.58-42c11-47.23,47-49.68,56.8-49.44H204c.74,0,1.49.08,2.26.14h.18Z"/><path class="cls-2" d="M203.89.11c-9.83-.24-45.8,2.21-56.8,49.44l-10.58,42c-2.66,10.16-7.47,15-7.47,15C111.25,123.54,82.16,110,82.16,110,59.91,100.39,42.39,74.2,41.85,73.38v0L0,1.28s38.85-7,56,22L88.84,79.51s12.88,26.47,28,0l34.46-58.93S165.29-1.78,203.89.11Z"/><path class="cls-3" d="M203.89.11c-9.83-.24-45.8,2.21-56.8,49.44l-10.58,42c-2.66,10.16-7.47,15-7.47,15C111.25,123.54,82.16,110,82.16,110,59.91,100.39,42.39,74.2,41.85,73.38v0L0,1.28s38.85-7,56,22L88.84,79.51s12.88,26.47,28,0l34.46-58.93S165.29-1.78,203.89.11Z"/><path class="cls-4" d="M206.39.26,102.92,178.31,41.85,73.38c.54.82,18.06,27,40.31,36.59,0,0,29.09,13.57,46.88-3.37,0,0,4.81-4.87,7.47-15l10.58-42c11-47.23,47-49.68,56.8-49.44H204c.74,0,1.49.08,2.26.14h.18Z"/></g></g></svg>